<?xml version="1.0" encoding="utf-8"?>
<!-- Generator: Adobe Illustrator 27.6.1, SVG Export Plug-In . SVG Version: 6.00 Build 0)  -->
<svg version="1.1" id="레이어_1" xmlns="http://www.w3.org/2000/svg" xmlns:xlink="http://www.w3.org/1999/xlink" x="0px"
	 y="0px" viewBox="0 0 330.4 134.8" style="enable-background:new 0 0 330.4 134.8;" xml:space="preserve">
<style type="text/css">
	.st0{clip-path:url(#SVGID_00000006686235351986480930000011578480525693171851_);fill:#FABD00;}
	.st1{clip-path:url(#SVGID_00000006686235351986480930000011578480525693171851_);fill:#FFFFFF;}
</style>
<g>
	<defs>
		<rect id="SVGID_1_" width="330.4" height="134.8"/>
	</defs>
	<clipPath id="SVGID_00000105422898956686809080000001714342419428274364_">
		<use xlink:href="#SVGID_1_"  style="overflow:visible;"/>
	</clipPath>
	<path style="clip-path:url(#SVGID_00000105422898956686809080000001714342419428274364_);fill:#FABD00;" d="M194.1,0
		c-6.1,0-11.1,4.5-11.8,10.4l-0.1,0c0,0-3,14.5-17,14.5c-14,0-17-14.5-17-14.5l-0.1,0C147.3,4.5,142.3,0,136.3,0
		c-6.6,0-11.9,5.3-11.9,11.9c0,6.6,5.3,11.9,11.9,11.9c15.1,0,17.8,10.5,18.2,13.1c0,0.1,0,0.2,0.1,0.3c0,0.1,0,0.2,0,0.2l0,0
		c0.9,5.1,5.3,8.9,10.6,8.9c5.3,0,9.7-3.9,10.6-8.9l0,0c0,0,0-0.1,0-0.2c0-0.1,0-0.2,0.1-0.3c0.4-2.6,3.2-13.1,18.2-13.1
		c6.6,0,11.9-5.3,11.9-11.9C206.1,5.3,200.7,0,194.1,0"/>
	<path style="clip-path:url(#SVGID_00000105422898956686809080000001714342419428274364_);fill:#FABD00;" d="M184.3,41.7
		c-3,0-5.4,2.2-5.7,5.1l0,0c0,0-1.9,9.7-13.4,9.7c-11.5,0-13.4-9.7-13.4-9.7l0,0c-0.3-2.9-2.8-5.1-5.7-5.1c-3.2,0-5.7,2.6-5.7,5.7
		c0,3,2.2,5.4,5.1,5.7l0,0c1.3,0,3.1,0.2,4.8,1.2c3.3,2,5.1,6.1,5,10.7c-0.1,0.4-0.1,0.9-0.1,1.4c0,5.6,4.5,10.1,10.1,10.1
		c5.6,0,10.1-4.5,10.1-10.1c0-0.5,0-0.9-0.1-1.4c-0.2-4.7,1.7-8.8,5-10.7c1.7-1,3.5-1.2,4.8-1.2l0,0c2.9-0.3,5.1-2.8,5.1-5.7
		C190.1,44.2,187.5,41.7,184.3,41.7"/>
	<path style="clip-path:url(#SVGID_00000105422898956686809080000001714342419428274364_);fill:#FABD00;" d="M165.2,18.3
		c5,0,9.1-4.1,9.1-9.1c0-5-4.1-9.1-9.1-9.1c-5,0-9.1,4.1-9.1,9.1C156.1,14.2,160.2,18.3,165.2,18.3"/>
	<path style="clip-path:url(#SVGID_00000105422898956686809080000001714342419428274364_);fill:#FFFFFF;" d="M97.8,134.3
		c-0.6-0.3-1-0.8-1.4-1.4c-0.3-0.6-0.5-1.3-0.5-2.1c0-0.8,0.2-1.5,0.5-2.1c0.3-0.6,0.8-1.1,1.4-1.4c0.6-0.3,1.2-0.5,2-0.5
		c0.6,0,1.2,0.1,1.7,0.3c0.5,0.2,0.9,0.5,1.3,0.9c0.3,0.4,0.6,0.8,0.7,1.3h-1c-0.1-0.3-0.3-0.6-0.5-0.9c-0.3-0.3-0.6-0.5-0.9-0.6
		c-0.4-0.1-0.7-0.2-1.1-0.2c-0.6,0-1,0.1-1.5,0.4c-0.4,0.3-0.8,0.6-1,1.1c-0.2,0.5-0.4,1-0.4,1.6c0,0.6,0.1,1.1,0.4,1.6
		c0.2,0.5,0.6,0.8,1,1.1s0.9,0.4,1.5,0.4c0.5,0,0.9-0.1,1.3-0.3c0.4-0.2,0.7-0.5,1-0.9c0.2-0.4,0.4-0.8,0.4-1.2h-2.9v-0.9h3.9v0.3
		c0,0.7-0.2,1.4-0.5,2c-0.3,0.6-0.8,1-1.4,1.4c-0.6,0.3-1.2,0.5-1.9,0.5C99,134.8,98.4,134.6,97.8,134.3"/>
	
		<rect x="105.6" y="126.9" style="clip-path:url(#SVGID_00000105422898956686809080000001714342419428274364_);fill:#FFFFFF;" width="1" height="7.7"/>
	<path style="clip-path:url(#SVGID_00000105422898956686809080000001714342419428274364_);fill:#FFFFFF;" d="M109.9,126.9v4.4
		c0,0.5,0.1,1,0.3,1.3c0.2,0.4,0.4,0.7,0.8,0.9c0.3,0.2,0.7,0.3,1.2,0.3s0.8-0.1,1.2-0.3c0.3-0.2,0.6-0.5,0.8-0.9
		c0.2-0.4,0.3-0.8,0.3-1.3v-4.4h1v4.4c0,0.7-0.1,1.3-0.4,1.8c-0.3,0.5-0.6,0.9-1.1,1.2c-0.5,0.3-1,0.4-1.7,0.4s-1.2-0.1-1.7-0.4
		c-0.5-0.3-0.9-0.7-1.1-1.2c-0.3-0.5-0.4-1.1-0.4-1.8v-4.4H109.9z"/>
	<polygon style="clip-path:url(#SVGID_00000105422898956686809080000001714342419428274364_);fill:#FFFFFF;" points="118.6,126.9 
		123,132.9 123,126.9 124,126.9 124,134.6 123.1,134.6 118.7,128.6 118.7,134.6 117.7,134.6 117.7,126.9 	"/>
	<path style="clip-path:url(#SVGID_00000105422898956686809080000001714342419428274364_);fill:#FFFFFF;" d="M128,134.3
		c-0.6-0.3-1-0.8-1.4-1.4c-0.3-0.6-0.5-1.3-0.5-2.1c0-0.8,0.2-1.4,0.5-2.1c0.3-0.6,0.8-1.1,1.4-1.4c0.6-0.3,1.2-0.5,2-0.5
		c0.6,0,1.2,0.1,1.7,0.3c0.5,0.2,0.9,0.6,1.2,1c0.3,0.4,0.6,0.9,0.7,1.4h-1c-0.2-0.6-0.5-1-0.9-1.3c-0.5-0.3-1-0.5-1.7-0.5
		c-0.6,0-1,0.1-1.5,0.4c-0.4,0.3-0.8,0.6-1,1.1c-0.2,0.5-0.4,1-0.4,1.6c0,0.6,0.1,1.1,0.4,1.6c0.2,0.5,0.6,0.8,1,1.1
		s0.9,0.4,1.5,0.4c0.4,0,0.9-0.1,1.2-0.3c0.4-0.2,0.7-0.4,0.9-0.7c0.2-0.3,0.4-0.6,0.5-1h1c-0.1,0.5-0.3,1-0.7,1.5
		c-0.3,0.4-0.8,0.8-1.3,1c-0.5,0.3-1.1,0.4-1.7,0.4C129.2,134.8,128.6,134.6,128,134.3"/>
	<polygon style="clip-path:url(#SVGID_00000105422898956686809080000001714342419428274364_);fill:#FFFFFF;" points="141.9,126.9 
		141.9,134.6 140.9,134.6 140.9,131.1 136.7,131.1 136.7,134.6 135.7,134.6 135.7,126.9 136.7,126.9 136.7,130.2 140.9,130.2 
		140.9,126.9 	"/>
	<path style="clip-path:url(#SVGID_00000105422898956686809080000001714342419428274364_);fill:#FFFFFF;" d="M149,132.7h-3.5
		l-0.7,1.9h-1l3-7.7h1l3,7.7h-1L149,132.7z M148.6,131.8l-1.4-3.7l-1.4,3.7H148.6z"/>
	<polygon style="clip-path:url(#SVGID_00000105422898956686809080000001714342419428274364_);fill:#FFFFFF;" points="153.5,126.9 
		157.9,132.9 157.9,126.9 158.9,126.9 158.9,134.6 158,134.6 153.6,128.6 153.6,134.6 152.6,134.6 152.6,126.9 	"/>
	<path style="clip-path:url(#SVGID_00000105422898956686809080000001714342419428274364_);fill:#FFFFFF;" d="M167.4,126.9
		c0.6,0,1.2,0.1,1.6,0.3c0.5,0.2,0.8,0.5,1,0.9c0.2,0.4,0.4,0.9,0.4,1.4s-0.1,1-0.4,1.4c-0.2,0.4-0.6,0.7-1,0.9
		c-0.5,0.2-1,0.3-1.6,0.3h-1.6v2.3h-1v-7.7H167.4z M168.9,130.9c0.4-0.3,0.6-0.7,0.6-1.3s-0.2-1-0.6-1.3c-0.4-0.3-0.9-0.5-1.6-0.5
		h-1.6v3.5h1.6C168,131.4,168.5,131.2,168.9,130.9"/>
	<path style="clip-path:url(#SVGID_00000105422898956686809080000001714342419428274364_);fill:#FFFFFF;" d="M176.3,132.7h-3.5
		l-0.7,1.9h-1l3-7.7h1l3,7.7h-1L176.3,132.7z M175.9,131.8l-1.4-3.7l-1.4,3.7H175.9z"/>
	
		<rect x="179.9" y="126.9" style="clip-path:url(#SVGID_00000105422898956686809080000001714342419428274364_);fill:#FFFFFF;" width="1" height="7.7"/>
	<polygon style="clip-path:url(#SVGID_00000105422898956686809080000001714342419428274364_);fill:#FFFFFF;" points="184.2,126.9 
		188.6,132.9 188.6,126.9 189.6,126.9 189.6,134.6 188.7,134.6 184.3,128.6 184.3,134.6 183.3,134.6 183.3,126.9 	"/>
	<path style="clip-path:url(#SVGID_00000105422898956686809080000001714342419428274364_);fill:#FFFFFF;" d="M197.1,134.3
		c-0.6-0.3-1-0.8-1.4-1.4c-0.3-0.6-0.5-1.3-0.5-2.1c0-0.8,0.2-1.4,0.5-2.1c0.3-0.6,0.8-1.1,1.4-1.4c0.6-0.3,1.2-0.5,2-0.5
		c0.6,0,1.2,0.1,1.7,0.3c0.5,0.2,0.9,0.6,1.2,1c0.3,0.4,0.6,0.9,0.7,1.4h-1c-0.2-0.6-0.5-1-0.9-1.3c-0.5-0.3-1-0.5-1.7-0.5
		c-0.6,0-1,0.1-1.5,0.4c-0.4,0.3-0.8,0.6-1,1.1c-0.2,0.5-0.4,1-0.4,1.6c0,0.6,0.1,1.1,0.4,1.6c0.2,0.5,0.6,0.8,1,1.1
		c0.4,0.3,0.9,0.4,1.5,0.4c0.4,0,0.8-0.1,1.2-0.3c0.4-0.2,0.7-0.4,0.9-0.7c0.2-0.3,0.4-0.6,0.5-1h1c-0.1,0.5-0.3,1-0.7,1.5
		c-0.3,0.4-0.8,0.8-1.3,1c-0.5,0.3-1.1,0.4-1.7,0.4C198.3,134.8,197.7,134.6,197.1,134.3"/>
	<polygon style="clip-path:url(#SVGID_00000105422898956686809080000001714342419428274364_);fill:#FFFFFF;" points="205.8,133.7 
		209.8,133.7 209.8,134.6 204.8,134.6 204.8,126.9 205.8,126.9 	"/>
	
		<rect x="211.7" y="126.9" style="clip-path:url(#SVGID_00000105422898956686809080000001714342419428274364_);fill:#FFFFFF;" width="1" height="7.7"/>
	<polygon style="clip-path:url(#SVGID_00000105422898956686809080000001714342419428274364_);fill:#FFFFFF;" points="216.1,126.9 
		220.5,132.9 220.5,126.9 221.4,126.9 221.4,134.6 220.5,134.6 216.1,128.6 216.1,134.6 215.2,134.6 215.2,126.9 	"/>
	
		<rect x="223.9" y="126.9" style="clip-path:url(#SVGID_00000105422898956686809080000001714342419428274364_);fill:#FFFFFF;" width="1" height="7.7"/>
	<path style="clip-path:url(#SVGID_00000105422898956686809080000001714342419428274364_);fill:#FFFFFF;" d="M228.9,134.3
		c-0.6-0.3-1-0.8-1.4-1.4c-0.3-0.6-0.5-1.3-0.5-2.1c0-0.8,0.2-1.4,0.5-2.1c0.3-0.6,0.8-1.1,1.4-1.4c0.6-0.3,1.2-0.5,2-0.5
		c0.6,0,1.2,0.1,1.7,0.3c0.5,0.2,0.9,0.6,1.2,1c0.3,0.4,0.6,0.9,0.7,1.4h-1c-0.2-0.6-0.5-1-0.9-1.3c-0.5-0.3-1-0.5-1.7-0.5
		c-0.6,0-1,0.1-1.5,0.4c-0.4,0.3-0.8,0.6-1,1.1c-0.2,0.5-0.4,1-0.4,1.6c0,0.6,0.1,1.1,0.4,1.6c0.2,0.5,0.6,0.8,1,1.1
		c0.4,0.3,0.9,0.4,1.5,0.4c0.4,0,0.8-0.1,1.2-0.3c0.4-0.2,0.7-0.4,0.9-0.7c0.2-0.3,0.4-0.6,0.5-1h1c-0.1,0.5-0.3,1-0.7,1.5
		c-0.3,0.4-0.8,0.8-1.3,1c-0.5,0.3-1.1,0.4-1.7,0.4C230.1,134.8,229.5,134.6,228.9,134.3"/>
	<path style="clip-path:url(#SVGID_00000105422898956686809080000001714342419428274364_);fill:#FFFFFF;" d="M0,107.7V104h9.9v-2
		H1.1V91.7h21.4V102h-8.5v2h9.8v3.7H0z M18.6,119.5v-6.2H1v-3.6h21.4v9.8H18.6z M4.9,98.5h13.8v-3.2H4.9V98.5z"/>
	<path style="clip-path:url(#SVGID_00000105422898956686809080000001714342419428274364_);fill:#FFFFFF;" d="M46.8,108.7
		c0.4,0.6,0.6,1.3,0.9,2c0.2,0.7,0.3,1.5,0.3,2.3c0,1.2-0.2,2.4-0.7,3.4c-0.4,1-1,1.8-1.8,2.6c-0.8,0.7-1.7,1.2-2.7,1.6
		c-1,0.4-2.1,0.6-3.3,0.6c-1.2,0-2.2-0.2-3.3-0.6c-1-0.4-1.9-0.9-2.7-1.6c-0.8-0.7-1.4-1.6-1.8-2.6c-0.4-1-0.7-2.1-0.7-3.4
		c0-0.8,0.1-1.6,0.3-2.3c0.2-0.7,0.5-1.4,0.9-2h-4.7V105h9.9v-2.6h-8.8V91.7h21.4v3.7H32.5v3.5h17.5v3.6h-8.5v2.6h9.8v3.7H46.8z
		 M39.5,117.5c0.6,0,1.2-0.1,1.8-0.4s1-0.6,1.4-1c0.4-0.4,0.7-0.9,1-1.4c0.2-0.5,0.4-1.1,0.4-1.6c0-0.6-0.1-1.1-0.4-1.6
		c-0.2-0.5-0.6-1-1-1.4c-0.4-0.4-0.9-0.7-1.4-1c-0.6-0.2-1.1-0.4-1.8-0.4c-0.6,0-1.2,0.1-1.7,0.4c-0.5,0.2-1,0.6-1.4,1
		c-0.4,0.4-0.7,0.9-1,1.4c-0.2,0.5-0.4,1.1-0.4,1.6c0,0.6,0.1,1.1,0.4,1.6c0.2,0.5,0.6,1,1,1.4c0.4,0.4,0.9,0.8,1.4,1
		C38.3,117.3,38.9,117.5,39.5,117.5"/>
	<path style="clip-path:url(#SVGID_00000105422898956686809080000001714342419428274364_);fill:#FABD00;" d="M69.2,103.3
		c-0.7,1.5-1.7,2.8-2.9,3.8c-1.2,1.1-2.7,1.9-4.4,2.5c-1.7,0.6-3.5,1-5.4,1.1v-3.9c1.1-0.1,2.2-0.3,3.3-0.7c1.1-0.3,2.2-0.8,3.1-1.5
		c0.9-0.6,1.7-1.4,2.3-2.3c0.6-0.9,0.9-2,0.9-3.3v-3.9h-9.3v-3.6h13.4v6.6C70.3,100.1,69.9,101.9,69.2,103.3 M74.9,91.7h3.8v27.9
		h-3.8V91.7z"/>
	<path style="clip-path:url(#SVGID_00000105422898956686809080000001714342419428274364_);fill:#FABD00;" d="M82.9,105h23.7v3.7
		h-9.8v4.9h-4v-4.9h-9.9V105z M83.9,110.6h3.8v5.3h18v3.6H83.9V110.6z M94.6,89.9c1.1,0,2.2,0.2,3.2,0.5c1,0.3,1.9,0.8,2.7,1.3
		c0.8,0.6,1.4,1.3,1.8,2.1c0.5,0.8,0.7,1.8,0.7,2.8c0,1.1-0.2,2-0.7,2.9c-0.4,0.8-1.1,1.6-1.8,2.2c-0.8,0.6-1.7,1-2.7,1.3
		c-1,0.3-2.1,0.5-3.2,0.5c-1.2,0-2.2-0.2-3.3-0.5c-1-0.3-1.9-0.8-2.7-1.3c-0.8-0.6-1.4-1.3-1.8-2.2c-0.5-0.8-0.7-1.8-0.7-2.9
		c0-1.1,0.2-2,0.7-2.8c0.4-0.8,1.1-1.6,1.8-2.1c0.8-0.6,1.6-1,2.7-1.3C92.4,90,93.5,89.9,94.6,89.9 M94.6,99.9
		c1.3,0,2.3-0.3,3.1-0.8c0.7-0.5,1.1-1.4,1.1-2.4c0-0.4-0.1-0.8-0.3-1.2c-0.2-0.4-0.5-0.7-0.8-1c-0.4-0.3-0.8-0.5-1.3-0.7
		c-0.5-0.2-1.1-0.3-1.7-0.3c-0.7,0-1.3,0.1-1.8,0.3c-0.5,0.2-1,0.4-1.3,0.7c-0.4,0.3-0.6,0.6-0.8,1c-0.2,0.4-0.3,0.8-0.3,1.2
		c0,1.1,0.4,1.9,1.1,2.4C92.3,99.6,93.3,99.9,94.6,99.9"/>
	<path style="clip-path:url(#SVGID_00000105422898956686809080000001714342419428274364_);fill:#FABD00;" d="M110.9,103.1
		c1-0.1,1.9-0.4,2.6-0.8c0.7-0.4,1.3-0.9,1.7-1.5c0.4-0.6,0.7-1.3,0.9-2c0.2-0.7,0.3-1.5,0.3-2.3v-0.2h-5.1v-3.6h5.1v-2.5h3.8v2.5
		h5.4v3.6h-5.4v0.2v0.3c0,0.8,0.1,1.5,0.3,2.3c0.2,0.7,0.5,1.4,0.9,2c0.4,0.6,1,1.1,1.7,1.5c0.7,0.4,1.5,0.7,2.6,0.8v3.9
		c-1.8-0.3-3.3-0.8-4.5-1.5c-1.2-0.7-2.2-1.6-2.9-2.6c-0.7,1-1.7,1.9-2.9,2.6c-1.2,0.7-2.7,1.2-4.5,1.5V103.1z M112.2,119.5v-9.8
		h3.8v6.3h17.3v3.6H112.2z M129.2,111.5V91.7h3.8v5.6h4v3.6h-4v10.7H129.2z"/>
	<path style="clip-path:url(#SVGID_00000105422898956686809080000001714342419428274364_);fill:#FFFFFF;" d="M139.1,91.7h13.5v18.4
		h-13.5V91.7z M143,106.5h5.8V95.3H143V106.5z M156.8,119.5V91.7h3.8v6.2h4v3.6h-4v18.1H156.8z"/>
	<path style="clip-path:url(#SVGID_00000105422898956686809080000001714342419428274364_);fill:#FFFFFF;" d="M185.4,119.5v-10.3
		h-9.1v10.3h-3.8v-10.3h-7v-3.5h19.9V91.7h3.8v27.9H185.4z M182.5,104.1c-1.8-0.2-3.4-0.6-4.7-1.2c-1.3-0.6-2.4-1.4-3.2-2.4
		c-0.8,1-1.9,1.8-3.2,2.4c-1.3,0.6-2.9,1-4.7,1.2v-3.7c1.6-0.1,2.8-0.5,3.8-1.3c1-0.7,1.6-1.6,1.9-2.7h-5.4v-3.5h5.6v-2.7h3.8v2.7
		h5.6v3.5h-5.4c0.3,1,1,2,2,2.7c1,0.8,2.2,1.2,3.8,1.3V104.1z"/>
	<path style="clip-path:url(#SVGID_00000105422898956686809080000001714342419428274364_);fill:#FFFFFF;" d="M212.1,109.5
		c0.4,0.6,0.6,1.2,0.8,1.9c0.2,0.7,0.3,1.4,0.3,2.2c0,1.2-0.2,2.2-0.6,3.1c-0.4,0.9-1,1.7-1.7,2.4s-1.5,1.2-2.5,1.5
		c-1,0.3-2,0.5-3.1,0.5c-1.1,0-2.1-0.2-3-0.5c-0.9-0.3-1.8-0.8-2.5-1.5c-0.7-0.7-1.3-1.4-1.7-2.4c-0.4-0.9-0.6-2-0.6-3.1
		c0-0.8,0.1-1.5,0.3-2.2c0.2-0.7,0.5-1.3,0.8-1.9h-5.2V106h9.9v-1.6h-8.8l0-12.8h21.4l0,3.4h-17.6v1.4h17.6v3.1h-17.6v1.3h17.6v3.5
		h-8.6v1.6h9.8v3.4H212.1z M205.4,117.6c0.6,0,1.1-0.1,1.6-0.3c0.5-0.2,0.9-0.5,1.3-0.9c0.4-0.4,0.6-0.8,0.9-1.3
		c0.2-0.5,0.3-1,0.3-1.6c0-0.5-0.1-1-0.3-1.5c-0.2-0.5-0.5-0.9-0.9-1.3c-0.4-0.4-0.8-0.6-1.3-0.9c-0.5-0.2-1-0.3-1.6-0.3
		c-0.5,0-1,0.1-1.5,0.3c-0.5,0.2-0.9,0.5-1.3,0.9c-0.4,0.4-0.6,0.8-0.8,1.3c-0.2,0.5-0.3,1-0.3,1.5c0,0.6,0.1,1.1,0.3,1.6
		c0.2,0.5,0.5,0.9,0.8,1.3c0.4,0.4,0.8,0.7,1.3,0.9C204.3,117.5,204.8,117.6,205.4,117.6"/>
	<path style="clip-path:url(#SVGID_00000105422898956686809080000001714342419428274364_);fill:#FFFFFF;" d="M239.5,107.5
		c0.4,0.7,0.7,1.4,0.9,2.2c0.2,0.8,0.3,1.7,0.3,2.6c0,1.3-0.2,2.5-0.6,3.6c-0.4,1-1,1.9-1.7,2.7c-0.7,0.7-1.5,1.3-2.5,1.7
		c-1,0.4-2,0.6-3.1,0.6c-1.1,0-2.1-0.2-3-0.6c-0.9-0.4-1.8-0.9-2.5-1.7c-0.7-0.7-1.3-1.6-1.7-2.7c-0.4-1-0.6-2.2-0.6-3.6
		c0-1,0.1-1.8,0.3-2.6c0.2-0.8,0.5-1.5,0.9-2.2h-5.2v-3.7h23.7v3.7H239.5z M221.9,98.4c2.5-0.1,4.5-0.5,5.8-1
		c1.4-0.5,2.3-1.3,2.8-2.2h-8.3v-3.6h21.4v3.6h-8.3c0.5,0.9,1.4,1.6,2.8,2.2c1.4,0.5,3.3,0.9,5.8,1v3.6c-5.2-0.4-8.9-1.6-11-3.6
		c-2.1,2.1-5.8,3.3-11,3.6V98.4z M232.8,107.6c-0.5,0-1,0.1-1.5,0.3c-0.5,0.2-0.9,0.5-1.3,0.9c-0.4,0.4-0.7,0.9-0.9,1.5
		c-0.2,0.6-0.4,1.3-0.4,2c0,0.7,0.1,1.4,0.4,2c0.2,0.6,0.5,1.1,0.9,1.5c0.4,0.4,0.8,0.7,1.3,0.9c0.5,0.2,1,0.3,1.5,0.3
		c0.5,0,1-0.1,1.5-0.3c0.5-0.2,0.9-0.5,1.3-0.9c0.4-0.4,0.7-0.9,0.9-1.5c0.2-0.6,0.4-1.3,0.4-2c0-0.8-0.1-1.4-0.4-2
		c-0.2-0.6-0.5-1.1-0.9-1.5c-0.4-0.4-0.8-0.7-1.3-0.9C233.9,107.7,233.4,107.6,232.8,107.6"/>
	<path style="clip-path:url(#SVGID_00000105422898956686809080000001714342419428274364_);fill:#FFFFFF;" d="M268.4,119.5v-7.8
		h-19.2V108h19.2V91.7h3.8v27.9H268.4z M257.7,91.3c1,0,2,0.2,3,0.5c0.9,0.3,1.8,0.8,2.4,1.4c0.7,0.6,1.2,1.4,1.6,2.2
		c0.4,0.9,0.6,1.9,0.6,3c0,1.1-0.2,2.1-0.6,3c-0.4,0.9-1,1.6-1.6,2.2c-0.7,0.6-1.5,1.1-2.4,1.4c-0.9,0.3-1.9,0.5-3,0.5
		c-1.1,0-2-0.2-3-0.5c-0.9-0.3-1.7-0.8-2.4-1.4c-0.7-0.6-1.2-1.4-1.6-2.2c-0.4-0.9-0.6-1.9-0.6-3c0-1.1,0.2-2.1,0.6-3
		c0.4-0.9,1-1.6,1.6-2.2c0.7-0.6,1.5-1.1,2.4-1.4C255.6,91.4,256.6,91.3,257.7,91.3 M257.7,101.9c0.5,0,1-0.1,1.5-0.3
		c0.5-0.2,0.8-0.5,1.1-0.8c0.3-0.3,0.6-0.7,0.7-1.1c0.2-0.4,0.3-0.8,0.3-1.2c0-0.4-0.1-0.8-0.3-1.2c-0.2-0.4-0.4-0.8-0.7-1.1
		c-0.3-0.3-0.7-0.6-1.1-0.8c-0.4-0.2-0.9-0.3-1.5-0.3c-0.5,0-1,0.1-1.5,0.3c-0.4,0.2-0.8,0.5-1.1,0.8c-0.3,0.3-0.5,0.7-0.7,1.1
		c-0.2,0.4-0.3,0.8-0.3,1.2c0,0.4,0.1,0.8,0.3,1.2c0.2,0.4,0.4,0.8,0.7,1.1c0.3,0.3,0.7,0.6,1.1,0.8
		C256.7,101.8,257.1,101.9,257.7,101.9"/>
	<path style="clip-path:url(#SVGID_00000105422898956686809080000001714342419428274364_);fill:#FFFFFF;" d="M285.9,92.8h6v3.5h-2.1
		c0.3,0.5,0.5,1.1,0.7,1.7c0.2,0.6,0.2,1.3,0.2,2c0,1.1-0.2,2-0.5,2.9c-0.4,0.9-0.8,1.6-1.4,2.2c-0.6,0.6-1.3,1.1-2.2,1.4
		c-0.8,0.3-1.7,0.5-2.7,0.5s-1.8-0.2-2.7-0.5c-0.8-0.3-1.5-0.8-2.2-1.4c-0.6-0.6-1.1-1.3-1.4-2.2c-0.4-0.9-0.5-1.8-0.5-2.9
		c0-0.7,0.1-1.4,0.2-2c0.2-0.6,0.4-1.2,0.7-1.7h-2.1v-3.5h5.9v-2.7h4V92.8z M295,119.5v-7.2h-17v-3.6h20.8v10.8H295z M283.9,103.3
		c0.4,0,0.8-0.1,1.1-0.3c0.3-0.2,0.6-0.4,0.9-0.7c0.3-0.3,0.5-0.7,0.6-1.1c0.1-0.4,0.2-0.8,0.2-1.3c0-1-0.3-1.9-0.8-2.5
		c-0.5-0.6-1.2-0.9-2-0.9c-0.8,0-1.5,0.3-2,0.9c-0.5,0.6-0.8,1.4-0.8,2.5c0,0.4,0.1,0.9,0.2,1.3c0.1,0.4,0.3,0.8,0.6,1.1
		c0.3,0.3,0.6,0.6,0.9,0.7C283.1,103.2,283.5,103.3,283.9,103.3 M295,107.1V91.7h3.8v4.6h4v3.6h-4v7.3H295z"/>
	<polygon style="clip-path:url(#SVGID_00000105422898956686809080000001714342419428274364_);fill:#FFFFFF;" points="322.7,119.5 
		322.7,111 303.5,111 303.5,107.4 307.8,107.4 307.8,98.1 311.8,98.1 311.8,107.4 315.4,107.4 315.4,95.3 304.6,95.3 304.6,91.7 
		319.4,91.7 319.4,107.4 322.7,107.4 322.7,91.7 326.5,91.7 326.5,97.9 330.4,97.9 330.4,101.4 326.5,101.4 326.5,119.5 	"/>
</g>
</svg>
